# xmcd
#
# Track frame offsets:
#	150
#	22251
#	44374
#	63793
#	75342
#	97770
#	125604
#	142308
#	164499
#	185472
#	202983
#
# Disc length: 3333 seconds
#
# Revision: 10
# Processed by: cddbd v1.5.2PL0 Copyright (c) Steve Scherf et al.
# Submitted via: Jack! The Knife 20 Magnifico
#
DISCID=930d030b
DTITLE=Queensrÿche - Take Cover
DYEAR=2007
DGENRE=Heavy Metal
TTITLE0=Welcome To The Machine
TTITLE1=Heaven On Their Minds
TTITLE2=Almost Cut My Hair
TTITLE3=For What It's Worth
TTITLE4=For The Love Of Money
TTITLE5=Innuendo
TTITLE6=Neon Knights
TTITLE7=Synchronicity II
TTITLE8=Red Rain
TTITLE9=Odissea
TTITLE10=Bullet The Blue Sky (Live)
EXTD=Mike Stone, Jason Slater and Michael Wilson
EXTT0=Roger Waters
EXTT1=Andrew Lloyd Webber and Tim Rice
EXTT2=David Crosby
EXTT3=Stephen Stills
EXTT4=Gamble, Huff, Jackson
EXTT5=Deacon, May, Mercury, Taylor
EXTT6=Iommi, Butler, Dio, Ward
EXTT7=Sting
EXTT8=Peter Gabriel
EXTT9=Carlo Marrale
EXTT10=Clayton, Evans, Hewson, Mullen, Jr.
PLAYORDER=
